<?xml version="1.0" encoding="UTF-8"?>
<svg id="Layer_1" data-name="Layer 1" xmlns="http://www.w3.org/2000/svg" viewBox="0 0 2805.27 1897.04">
  <defs>
    <style>
      .cls-1 {
        opacity: .1;
      }

      .cls-2 {
        fill: none;
        stroke: #fff;
        stroke-miterlimit: 10;
        stroke-width: 5.29px;
      }
    </style>
  </defs>
  <g class="cls-1">
    <path class="cls-2" d="m2861.99,1705.25h-331.09v-185.46h331.09v-4.21h-331.09v-185.46h331.09v-4.21h-331.09v-185.46h331.09v-4.21h-331.09v-185.46h331.09v-4.22h-331.09v-185.46h331.09v-4.22h-331.09v-185.46h331.09v-4.21h-331.09v-185.46h331.09v-4.21h-331.09v-185.46h331.09v-4.21h-331.09V2.37h331.09V-1.84H-14.32V.26h-2.49v1896.77h4.99v-187.57h418.8v187.57h4.99v-187.57h418.8v187.57h4.99v-187.57h418.8v187.57h4.99v-187.57h418.8v187.57h4.99v-187.57h418.8v187.57h4.99v-187.57h418.8v187.57h4.98v-187.57h331.09v-4.21Zm-2455.02,0H-11.83v-185.46h418.8v185.46Zm0-189.68H-11.83v-185.46h418.8v185.46Zm0-189.68H-11.83v-185.46h418.8v185.46Zm0-189.68H-11.83v-185.46h418.8v185.46Zm0-189.68H-11.83v-185.46h418.8v185.46Zm0-189.68H-11.83v-185.46h418.8v185.46Zm0-189.68H-11.83v-185.46h418.8v185.46Zm0-189.68H-11.83v-185.46h418.8v185.46Zm0-189.68H-11.83V2.37h418.8v185.46Zm423.79,1517.42h-418.8v-185.46h418.8v185.46Zm0-189.68h-418.8v-185.46h418.8v185.46Zm0-189.68h-418.8v-185.46h418.8v185.46Zm0-189.68h-418.8v-185.46h418.8v185.46Zm0-189.68h-418.8v-185.46h418.8v185.46Zm0-189.68h-418.8v-185.46h418.8v185.46Zm0-189.68h-418.8v-185.46h418.8v185.46Zm0-189.68h-418.8v-185.46h418.8v185.46Zm0-189.68h-418.8V2.37h418.8v185.46Zm423.79,1517.42h-418.8v-185.46h418.8v185.46Zm0-189.68h-418.8v-185.46h418.8v185.46Zm0-189.68h-418.8v-185.46h418.8v185.46Zm0-189.68h-418.8v-185.46h418.8v185.46Zm0-189.68h-418.8v-185.46h418.8v185.46Zm0-189.68h-418.8v-185.46h418.8v185.46Zm0-189.68h-418.8v-185.46h418.8v185.46Zm0-189.68h-418.8v-185.46h418.8v185.46Zm0-189.68h-418.8V2.37h418.8v185.46Zm423.79,1517.42h-418.8v-185.46h418.8v185.46Zm0-189.68h-418.8v-185.46h418.8v185.46Zm0-189.68h-418.8v-185.46h418.8v185.46Zm0-189.68h-418.8v-185.46h418.8v185.46Zm0-189.68h-418.8v-185.46h418.8v185.46Zm0-189.68h-418.8v-185.46h418.8v185.46Zm0-189.68h-418.8v-185.46h418.8v185.46Zm0-189.68h-418.8v-185.46h418.8v185.46Zm0-189.68h-418.8V2.37h418.8v185.46Zm423.79,1517.42h-418.8v-185.46h418.8v185.46Zm0-189.68h-418.8v-185.46h418.8v185.46Zm0-189.68h-418.8v-185.46h418.8v185.46Zm0-189.68h-418.8v-185.46h418.8v185.46Zm0-189.68h-418.8v-185.46h418.8v185.46Zm0-189.68h-418.8v-185.46h418.8v185.46Zm0-189.68h-418.8v-185.46h418.8v185.46Zm0-189.68h-418.8v-185.46h418.8v185.46Zm0-189.68h-418.8V2.37h418.8v185.46Zm423.79,1517.42h-418.8v-185.46h418.8v185.46Zm0-189.68h-418.8v-185.46h418.8v185.46Zm0-189.68h-418.8v-185.46h418.8v185.46Zm0-189.68h-418.8v-185.46h418.8v185.46Zm0-189.68h-418.8v-185.46h418.8v185.46Zm0-189.68h-418.8v-185.46h418.8v185.46Zm0-189.68h-418.8v-185.46h418.8v185.46Zm0-189.68h-418.8v-185.46h418.8v185.46Zm0-189.68h-418.8V2.37h418.8v185.46Z"/>
    <path class="cls-2" d="m2895.04,1890.71H-16.82v12.64h2918.69c-2.38-4.18-4.65-8.4-6.84-12.64Z"/>
    <path class="cls-2" d="m18.08,1806.14c0-15.13-14.51-27.4-32.41-27.4s-32.41,12.27-32.41,27.4,14.51,27.4,32.41,27.4,32.41-12.27,32.41-27.4h0Z"/>
    <path class="cls-2" d="m18.08,1806.14c0-15.13-14.51-27.4-32.41-27.4s-32.41,12.27-32.41,27.4,14.51,27.4,32.41,27.4,32.41-12.27,32.41-27.4h0Z"/>
    <path class="cls-2" d="m441.87,1328.01c0-15.13-14.51-27.4-32.41-27.4s-32.41,12.27-32.41,27.4,14.51,27.4,32.41,27.4,32.41-12.27,32.41-27.4h0Z"/>
    <path class="cls-2" d="m441.87,1328.01c0-15.13-14.51-27.4-32.41-27.4s-32.41,12.27-32.41,27.4,14.51,27.4,32.41,27.4,32.41-12.27,32.41-27.4h0Z"/>
    <path class="cls-2" d="m865.66,1614.63c0-15.13-14.51-27.4-32.41-27.4s-32.41,12.27-32.41,27.4,14.51,27.4,32.41,27.4,32.41-12.27,32.41-27.4h0Z"/>
    <path class="cls-2" d="m865.66,1614.63c0-15.13-14.51-27.4-32.41-27.4s-32.41,12.27-32.41,27.4,14.51,27.4,32.41,27.4,32.41-12.27,32.41-27.4h0Z"/>
    <path class="cls-2" d="m1289.45,1226.84c0-15.13-14.51-27.4-32.41-27.4s-32.41,12.27-32.41,27.4,14.51,27.4,32.41,27.4,32.41-12.27,32.41-27.4h0Z"/>
    <path class="cls-2" d="m1289.45,1226.84c0-15.13-14.51-27.4-32.41-27.4s-32.41,12.27-32.41,27.4,14.51,27.4,32.41,27.4,32.41-12.27,32.41-27.4h0Z"/>
    <path class="cls-2" d="m1713.24,294.48c0-15.13-14.51-27.4-32.41-27.4s-32.41,12.27-32.41,27.4,14.51,27.4,32.41,27.4,32.41-12.27,32.41-27.4h0Z"/>
    <path class="cls-2" d="m1713.24,294.48c0-15.13-14.51-27.4-32.41-27.4s-32.41,12.27-32.41,27.4,14.51,27.4,32.41,27.4,32.41-12.27,32.41-27.4h0Z"/>
    <path class="cls-2" d="m2137.03,623.3c0-15.13-14.51-27.4-32.41-27.4s-32.41,12.27-32.41,27.4,14.51,27.4,32.41,27.4,32.41-12.27,32.41-27.4h0Z"/>
    <path class="cls-2" d="m2137.03,623.3c0-15.13-14.51-27.4-32.41-27.4s-32.41,12.27-32.41,27.4,14.51,27.4,32.41,27.4,32.41-12.27,32.41-27.4h0Z"/>
    <path class="cls-2" d="m2559.16,499.86c0-15.13-14.51-27.4-32.41-27.4s-32.41,12.27-32.41,27.4,14.51,27.4,32.41,27.4,32.41-12.27,32.41-27.4h0Z"/>
    <path class="cls-2" d="m2559.16,499.86c0-15.13-14.51-27.4-32.41-27.4s-32.41,12.27-32.41,27.4,14.51,27.4,32.41,27.4,32.41-12.27,32.41-27.4h0Z"/>
    <path class="cls-2" d="m-14.32,1806.14c145.71-160.59,272.26-327.02,423.79-478.13,131.95,89.24-17.49,19.73,0,0,129.69,103.56,284.36,198.66,424.97,281.88,140.61-118.87,253.1-237.75,393.71-344.74,168.73-320.96,309.34-641.92,452.69-970.66,73.04,56.67-.62,1.37,0,0,137.87,114.77,278.48,209.87,419.09,328.74,140.61-23.77,281.22-95.1,421.83-118.87,112.49,118.87,196.85,237.75,297.09,368.75"/>
    <path class="cls-2" d="m18.08,1043.49c0-15.13-14.51-27.4-32.41-27.4s-32.41,12.27-32.41,27.4,14.51,27.4,32.41,27.4,32.41-12.27,32.41-27.4h0Z"/>
    <path class="cls-2" d="m18.08,1043.49c0-15.13-14.51-27.4-32.41-27.4s-32.41,12.27-32.41,27.4,14.51,27.4,32.41,27.4,32.41-12.27,32.41-27.4h0Z"/>
    <path class="cls-2" d="m441.87,678.1c0-15.13-14.51-27.4-32.41-27.4s-32.41,12.27-32.41,27.4,14.51,27.4,32.41,27.4,32.41-12.27,32.41-27.4h0Z"/>
    <path class="cls-2" d="m441.87,678.1c0-15.13-14.51-27.4-32.41-27.4s-32.41,12.27-32.41,27.4,14.51,27.4,32.41,27.4,32.41-12.27,32.41-27.4h0Z"/>
    <path class="cls-2" d="m865.66,1254.24c0-15.13-14.51-27.4-32.41-27.4s-32.41,12.27-32.41,27.4,14.51,27.4,32.41,27.4,32.41-12.27,32.41-27.4h0Z"/>
    <path class="cls-2" d="m865.66,1254.24c0-15.13-14.51-27.4-32.41-27.4s-32.41,12.27-32.41,27.4,14.51,27.4,32.41,27.4,32.41-12.27,32.41-27.4h0Z"/>
    <path class="cls-2" d="m1289.45,1614.63c0-15.13-14.51-27.4-32.41-27.4s-32.41,12.27-32.41,27.4,14.51,27.4,32.41,27.4,32.41-12.27,32.41-27.4h0Z"/>
    <path class="cls-2" d="m1289.45,1614.63c0-15.13-14.51-27.4-32.41-27.4s-32.41,12.27-32.41,27.4,14.51,27.4,32.41,27.4,32.41-12.27,32.41-27.4h0Z"/>
    <path class="cls-2" d="m1713.24,1433.38c0-15.13-14.51-27.4-32.41-27.4s-32.41,12.27-32.41,27.4,14.51,27.4,32.41,27.4,32.41-12.27,32.41-27.4h0Z"/>
    <path class="cls-2" d="m1713.24,1433.38c0-15.13-14.51-27.4-32.41-27.4s-32.41,12.27-32.41,27.4,14.51,27.4,32.41,27.4,32.41-12.27,32.41-27.4h0Z"/>
    <path class="cls-2" d="m2137.03,1050.31c0-15.13-14.51-27.4-32.41-27.4s-32.41,12.27-32.41,27.4,14.51,27.4,32.41,27.4,32.41-12.27,32.41-27.4h0Z"/>
    <path class="cls-2" d="m2137.03,1050.31c0-15.13-14.51-27.4-32.41-27.4s-32.41,12.27-32.41,27.4,14.51,27.4,32.41,27.4,32.41-12.27,32.41-27.4h0Z"/>
    <path class="cls-2" d="m2560.82,130.54c0-15.13-14.51-27.4-32.41-27.4s-32.41,12.27-32.41,27.4,14.51,27.4,32.41,27.4,32.41-12.27,32.41-27.4h0Z"/>
    <path class="cls-2" d="m2560.82,130.54c0-15.13-14.51-27.4-32.41-27.4s-32.41,12.27-32.41,27.4,14.51,27.4,32.41,27.4,32.41-12.27,32.41-27.4h0Z"/>
    <path class="cls-2" d="m-14.32,1043.49c145.71-123.08,272.26-253.84,423.79-365.39,59.43,80.8-17.74,15.3,0,0,143.75,206.65,298.42,396.85,439.03,598.93,140.61,106.99,267.16,225.86,407.77,332.85,154.67-71.32,323.4-106.99,464.01-202.09,126.55-106.99,224.98-225.86,351.53-320.96,182.79-309.07,295.28-630.03,456.61-956.29,67.94,87.78-2.21,4.8,0,0,105.83,124.17,190.2,254.93,290.96,375.94"/>
  </g>
</svg>