<?xml version="1.0" encoding="UTF-8"?>
<svg id="Layer_1" data-name="Layer 1" xmlns="http://www.w3.org/2000/svg" viewBox="0 0 3041.08 1910.49">
  <defs>
    <style>
      .cls-1 {
        fill: none;
        stroke: #193f6a;
        stroke-miterlimit: 10;
        stroke-width: 5.29px;
      }

      .cls-2 {
        opacity: .03;
      }
    </style>
  </defs>
  <g class="cls-2">
    <path class="cls-1" d="m2996.64,1709.74h-331.09v-185.46h331.09v-4.21h-331.09v-185.46h331.09v-4.21h-331.09v-185.46h331.09v-4.21h-331.09v-185.46h331.09v-4.22h-331.09v-185.46h331.09v-4.22h-331.09v-185.46h331.09v-4.21h-331.09v-185.46h331.09v-4.21h-331.09v-185.46h331.09v-4.21h-331.09V6.86h331.09V2.64H120.33v2.11h-2.49v1896.77h4.99v-187.57h418.8v187.57h4.99v-187.57h418.8v187.57h4.99v-187.57h418.8v187.57h4.99v-187.57h418.8v187.57h4.99v-187.57h418.8v187.57h4.99v-187.57h418.8v187.57h4.98v-187.57h331.09v-4.21Zm-2455.02,0H122.82v-185.46h418.8v185.46Zm0-189.68H122.82v-185.46h418.8v185.46Zm0-189.68H122.82v-185.46h418.8v185.46Zm0-189.68H122.82v-185.46h418.8v185.46Zm0-189.68H122.82v-185.46h418.8v185.46Zm0-189.68H122.82v-185.46h418.8v185.46Zm0-189.68H122.82v-185.46h418.8v185.46Zm0-189.68H122.82v-185.46h418.8v185.46Zm0-189.68H122.82V6.86h418.8v185.46Zm423.79,1517.42h-418.8v-185.46h418.8v185.46Zm0-189.68h-418.8v-185.46h418.8v185.46Zm0-189.68h-418.8v-185.46h418.8v185.46Zm0-189.68h-418.8v-185.46h418.8v185.46Zm0-189.68h-418.8v-185.46h418.8v185.46Zm0-189.68h-418.8v-185.46h418.8v185.46Zm0-189.68h-418.8v-185.46h418.8v185.46Zm0-189.68h-418.8v-185.46h418.8v185.46Zm0-189.68h-418.8V6.86h418.8v185.46Zm423.79,1517.42h-418.8v-185.46h418.8v185.46Zm0-189.68h-418.8v-185.46h418.8v185.46Zm0-189.68h-418.8v-185.46h418.8v185.46Zm0-189.68h-418.8v-185.46h418.8v185.46Zm0-189.68h-418.8v-185.46h418.8v185.46Zm0-189.68h-418.8v-185.46h418.8v185.46Zm0-189.68h-418.8v-185.46h418.8v185.46Zm0-189.68h-418.8v-185.46h418.8v185.46Zm0-189.68h-418.8V6.86h418.8v185.46Zm423.79,1517.42h-418.8v-185.46h418.8v185.46Zm0-189.68h-418.8v-185.46h418.8v185.46Zm0-189.68h-418.8v-185.46h418.8v185.46Zm0-189.68h-418.8v-185.46h418.8v185.46Zm0-189.68h-418.8v-185.46h418.8v185.46Zm0-189.68h-418.8v-185.46h418.8v185.46Zm0-189.68h-418.8v-185.46h418.8v185.46Zm0-189.68h-418.8v-185.46h418.8v185.46Zm0-189.68h-418.8V6.86h418.8v185.46Zm423.79,1517.42h-418.8v-185.46h418.8v185.46Zm0-189.68h-418.8v-185.46h418.8v185.46Zm0-189.68h-418.8v-185.46h418.8v185.46Zm0-189.68h-418.8v-185.46h418.8v185.46Zm0-189.68h-418.8v-185.46h418.8v185.46Zm0-189.68h-418.8v-185.46h418.8v185.46Zm0-189.68h-418.8v-185.46h418.8v185.46Zm0-189.68h-418.8v-185.46h418.8v185.46Zm0-189.68h-418.8V6.86h418.8v185.46Zm423.79,1517.42h-418.8v-185.46h418.8v185.46Zm0-189.68h-418.8v-185.46h418.8v185.46Zm0-189.68h-418.8v-185.46h418.8v185.46Zm0-189.68h-418.8v-185.46h418.8v185.46Zm0-189.68h-418.8v-185.46h418.8v185.46Zm0-189.68h-418.8v-185.46h418.8v185.46Zm0-189.68h-418.8v-185.46h418.8v185.46Zm0-189.68h-418.8v-185.46h418.8v185.46Zm0-189.68h-418.8V6.86h418.8v185.46Z"/>
    <path class="cls-1" d="m8.33,1726.69c0,4.98,3.36,8.08,9.04,8.08s8.94-3.09,8.94-8.08-3.35-8.15-8.94-8.15-9.04,3.01-9.04,8.15h0Zm23.56,0c0,7.9-5.48,12.63-14.52,12.63s-14.72-4.73-14.72-12.63,5.58-12.62,14.72-12.62,14.52,4.64,14.52,12.62h0Z"/>
    <path class="cls-1" d="m8.33,1537.02c0,4.98,3.35,8.07,9.04,8.07s8.93-3.09,8.93-8.07-3.35-8.16-8.93-8.16-9.04,3.01-9.04,8.16h0Zm23.56,0c0,7.89-5.48,12.62-14.52,12.62s-14.73-4.73-14.73-12.62,5.58-12.62,14.73-12.62,14.52,4.64,14.52,12.62h0Z"/>
    <path class="cls-1" d="m8.33,1347.34c0,4.98,3.36,8.08,9.04,8.08s8.94-3.09,8.94-8.08-3.35-8.15-8.94-8.15-9.04,3.01-9.04,8.15h0Zm23.56,0c0,7.9-5.48,12.63-14.52,12.63s-14.72-4.72-14.72-12.63,5.58-12.62,14.72-12.62,14.52,4.64,14.52,12.62h0Z"/>
    <path class="cls-1" d="m8.33,1157.66c0,4.98,3.35,8.08,9.04,8.08s8.93-3.09,8.93-8.08-3.35-8.15-8.93-8.15-9.04,3.01-9.04,8.15h0Zm23.56,0c0,7.9-5.48,12.63-14.52,12.63s-14.73-4.72-14.73-12.63,5.58-12.62,14.73-12.62,14.52,4.64,14.52,12.62h0Z"/>
    <path class="cls-1" d="m8.33,967.98c0,4.98,3.35,8.07,9.04,8.07s8.93-3.09,8.93-8.07-3.35-8.16-8.93-8.16-9.04,3.01-9.04,8.16h0Zm23.56,0c0,7.9-5.48,12.62-14.52,12.62s-14.73-4.73-14.73-12.62,5.58-12.62,14.73-12.62,14.52,4.63,14.52,12.62h0Z"/>
    <path class="cls-1" d="m8.33,778.31c0,4.98,3.35,8.07,9.04,8.07s8.93-3.09,8.93-8.07-3.35-8.16-8.93-8.16-9.04,3.01-9.04,8.16h0Zm23.56,0c0,7.9-5.48,12.62-14.52,12.62s-14.73-4.72-14.73-12.62,5.58-12.62,14.73-12.62,14.52,4.63,14.52,12.62h0Z"/>
    <path class="cls-1" d="m8.33,588.63c0,4.98,3.36,8.07,9.04,8.07s8.94-3.09,8.94-8.07-3.35-8.16-8.94-8.16-9.04,3.01-9.04,8.16h0Zm23.56,0c0,7.9-5.48,12.62-14.52,12.62s-14.72-4.72-14.72-12.62,5.58-12.62,14.72-12.62,14.52,4.63,14.52,12.62h0Z"/>
    <path class="cls-1" d="m8.33,398.95c0,4.98,3.36,8.07,9.04,8.07s8.94-3.09,8.94-8.07-3.35-8.16-8.94-8.16-9.04,3.01-9.04,8.16h0Zm23.56,0c0,7.9-5.48,12.62-14.52,12.62s-14.72-4.72-14.72-12.62,5.58-12.62,14.72-12.62,14.52,4.63,14.52,12.62h0Z"/>
    <path class="cls-1" d="m8.33,209.27c0,4.98,3.35,8.07,9.04,8.07s8.93-3.09,8.93-8.07-3.35-8.16-8.93-8.16-9.04,3.01-9.04,8.16h0Zm23.56,0c0,7.9-5.48,12.62-14.52,12.62s-14.73-4.72-14.73-12.62,5.58-12.62,14.73-12.62,14.52,4.63,14.52,12.62h0Z"/>
    <path class="cls-1" d="m8.33,19.6c0,4.98,3.35,8.07,9.04,8.07s8.93-3.09,8.93-8.07-3.35-8.16-8.93-8.16-9.04,3.01-9.04,8.16h0Zm23.56,0c0,7.9-5.48,12.62-14.52,12.62S2.64,27.5,2.64,19.6s5.58-12.62,14.73-12.62,14.52,4.63,14.52,12.62h0Z"/>
    <path class="cls-1" d="m3029.69,1895.2H117.83v12.64h2918.69c-2.38-4.18-4.65-8.4-6.84-12.64Z"/>
    <path class="cls-1" d="m152.73,1810.62c0-15.13-14.51-27.4-32.41-27.4s-32.41,12.27-32.41,27.4,14.51,27.4,32.41,27.4,32.41-12.27,32.41-27.4h0Z"/>
    <path class="cls-1" d="m152.73,1810.62c0-15.13-14.51-27.4-32.41-27.4s-32.41,12.27-32.41,27.4,14.51,27.4,32.41,27.4,32.41-12.27,32.41-27.4h0Z"/>
    <path class="cls-1" d="m576.52,1332.49c0-15.13-14.51-27.4-32.41-27.4s-32.41,12.27-32.41,27.4,14.51,27.4,32.41,27.4,32.41-12.27,32.41-27.4h0Z"/>
    <path class="cls-1" d="m576.52,1332.49c0-15.13-14.51-27.4-32.41-27.4s-32.41,12.27-32.41,27.4,14.51,27.4,32.41,27.4,32.41-12.27,32.41-27.4h0Z"/>
    <path class="cls-1" d="m1000.31,1619.12c0-15.13-14.51-27.4-32.41-27.4s-32.41,12.27-32.41,27.4,14.51,27.4,32.41,27.4,32.41-12.27,32.41-27.4h0Z"/>
    <path class="cls-1" d="m1000.31,1619.12c0-15.13-14.51-27.4-32.41-27.4s-32.41,12.27-32.41,27.4,14.51,27.4,32.41,27.4,32.41-12.27,32.41-27.4h0Z"/>
    <path class="cls-1" d="m1424.1,1231.33c0-15.13-14.51-27.4-32.41-27.4s-32.41,12.27-32.41,27.4,14.51,27.4,32.41,27.4,32.41-12.27,32.41-27.4h0Z"/>
    <path class="cls-1" d="m1424.1,1231.33c0-15.13-14.51-27.4-32.41-27.4s-32.41,12.27-32.41,27.4,14.51,27.4,32.41,27.4,32.41-12.27,32.41-27.4h0Z"/>
    <path class="cls-1" d="m1847.89,298.97c0-15.13-14.51-27.4-32.41-27.4s-32.41,12.27-32.41,27.4,14.51,27.4,32.41,27.4,32.41-12.27,32.41-27.4h0Z"/>
    <path class="cls-1" d="m1847.89,298.97c0-15.13-14.51-27.4-32.41-27.4s-32.41,12.27-32.41,27.4,14.51,27.4,32.41,27.4,32.41-12.27,32.41-27.4h0Z"/>
    <path class="cls-1" d="m2271.68,627.79c0-15.13-14.51-27.4-32.41-27.4s-32.41,12.27-32.41,27.4,14.51,27.4,32.41,27.4,32.41-12.27,32.41-27.4h0Z"/>
    <path class="cls-1" d="m2271.68,627.79c0-15.13-14.51-27.4-32.41-27.4s-32.41,12.27-32.41,27.4,14.51,27.4,32.41,27.4,32.41-12.27,32.41-27.4h0Z"/>
    <path class="cls-1" d="m2693.81,504.35c0-15.13-14.51-27.4-32.41-27.4s-32.41,12.27-32.41,27.4,14.51,27.4,32.41,27.4,32.41-12.27,32.41-27.4h0Z"/>
    <path class="cls-1" d="m2693.81,504.35c0-15.13-14.51-27.4-32.41-27.4s-32.41,12.27-32.41,27.4,14.51,27.4,32.41,27.4,32.41-12.27,32.41-27.4h0Z"/>
    <path class="cls-1" d="m120.33,1810.62c145.71-160.59,272.26-327.02,423.79-478.13,131.95,89.24-17.49,19.73,0,0,129.69,103.56,284.36,198.66,424.97,281.88,140.61-118.87,253.1-237.75,393.71-344.74,168.73-320.96,309.34-641.92,452.69-970.66,73.04,56.67-.62,1.37,0,0,137.87,114.77,278.48,209.87,419.09,328.74,140.61-23.77,281.22-95.1,421.83-118.87,112.49,118.87,196.85,237.75,297.09,368.75"/>
    <path class="cls-1" d="m152.73,1047.98c0-15.13-14.51-27.4-32.41-27.4s-32.41,12.27-32.41,27.4,14.51,27.4,32.41,27.4,32.41-12.27,32.41-27.4h0Z"/>
    <path class="cls-1" d="m152.73,1047.98c0-15.13-14.51-27.4-32.41-27.4s-32.41,12.27-32.41,27.4,14.51,27.4,32.41,27.4,32.41-12.27,32.41-27.4h0Z"/>
    <path class="cls-1" d="m576.52,682.59c0-15.13-14.51-27.4-32.41-27.4s-32.41,12.27-32.41,27.4,14.51,27.4,32.41,27.4,32.41-12.27,32.41-27.4h0Z"/>
    <path class="cls-1" d="m576.52,682.59c0-15.13-14.51-27.4-32.41-27.4s-32.41,12.27-32.41,27.4,14.51,27.4,32.41,27.4,32.41-12.27,32.41-27.4h0Z"/>
    <path class="cls-1" d="m1000.31,1258.73c0-15.13-14.51-27.4-32.41-27.4s-32.41,12.27-32.41,27.4,14.51,27.4,32.41,27.4,32.41-12.27,32.41-27.4h0Z"/>
    <path class="cls-1" d="m1000.31,1258.73c0-15.13-14.51-27.4-32.41-27.4s-32.41,12.27-32.41,27.4,14.51,27.4,32.41,27.4,32.41-12.27,32.41-27.4h0Z"/>
    <path class="cls-1" d="m1424.1,1619.12c0-15.13-14.51-27.4-32.41-27.4s-32.41,12.27-32.41,27.4,14.51,27.4,32.41,27.4,32.41-12.27,32.41-27.4h0Z"/>
    <path class="cls-1" d="m1424.1,1619.12c0-15.13-14.51-27.4-32.41-27.4s-32.41,12.27-32.41,27.4,14.51,27.4,32.41,27.4,32.41-12.27,32.41-27.4h0Z"/>
    <path class="cls-1" d="m1847.89,1437.87c0-15.13-14.51-27.4-32.41-27.4s-32.41,12.27-32.41,27.4,14.51,27.4,32.41,27.4,32.41-12.27,32.41-27.4h0Z"/>
    <path class="cls-1" d="m1847.89,1437.87c0-15.13-14.51-27.4-32.41-27.4s-32.41,12.27-32.41,27.4,14.51,27.4,32.41,27.4,32.41-12.27,32.41-27.4h0Z"/>
    <path class="cls-1" d="m2271.68,1054.8c0-15.13-14.51-27.4-32.41-27.4s-32.41,12.27-32.41,27.4,14.51,27.4,32.41,27.4,32.41-12.27,32.41-27.4h0Z"/>
    <path class="cls-1" d="m2271.68,1054.8c0-15.13-14.51-27.4-32.41-27.4s-32.41,12.27-32.41,27.4,14.51,27.4,32.41,27.4,32.41-12.27,32.41-27.4h0Z"/>
    <path class="cls-1" d="m2695.47,135.03c0-15.13-14.51-27.4-32.41-27.4s-32.41,12.27-32.41,27.4,14.51,27.4,32.41,27.4,32.41-12.27,32.41-27.4h0Z"/>
    <path class="cls-1" d="m2695.47,135.03c0-15.13-14.51-27.4-32.41-27.4s-32.41,12.27-32.41,27.4,14.51,27.4,32.41,27.4,32.41-12.27,32.41-27.4h0Z"/>
    <path class="cls-1" d="m120.33,1047.98c145.71-123.08,272.26-253.84,423.79-365.39,59.43,80.8-17.74,15.3,0,0,143.75,206.65,298.42,396.85,439.03,598.93,140.61,106.99,267.16,225.86,407.77,332.85,154.67-71.32,323.4-106.99,464.01-202.09,126.55-106.99,224.98-225.86,351.53-320.96,182.79-309.07,295.28-630.03,456.61-956.29,67.94,87.78-2.21,4.8,0,0,105.83,124.17,190.2,254.93,290.96,375.94"/>
  </g>
</svg>