<?xml version="1.0" encoding="UTF-8"?>
<svg id="Layer_1" data-name="Layer 1" xmlns="http://www.w3.org/2000/svg" viewBox="0 0 96.25 76.55">
  <defs>
    <style>
      .cls-1 {
        fill: #193f6a;
      }
    </style>
  </defs>
  <path class="cls-1" d="m92.89,6.71H3.36c-1.85,0-3.36-1.5-3.36-3.36S1.5,0,3.36,0h89.53c1.85,0,3.36,1.5,3.36,3.36s-1.5,3.36-3.36,3.36h0Z"/>
  <path class="cls-1" d="m92.89,29.99H3.36c-1.85,0-3.36-1.5-3.36-3.36s1.5-3.36,3.36-3.36h89.53c1.85,0,3.36,1.5,3.36,3.36s-1.5,3.36-3.36,3.36h0Z"/>
  <path class="cls-1" d="m92.89,53.27H3.36c-1.85,0-3.36-1.5-3.36-3.36s1.5-3.36,3.36-3.36h89.53c1.85,0,3.36,1.5,3.36,3.36s-1.5,3.36-3.36,3.36h0Z"/>
  <path class="cls-1" d="m92.89,76.55H3.36c-1.85,0-3.36-1.5-3.36-3.36s1.5-3.36,3.36-3.36h89.53c1.85,0,3.36,1.5,3.36,3.36s-1.5,3.36-3.36,3.36h0Z"/>
</svg>