<?xml version="1.0" encoding="UTF-8"?>
<svg id="Layer_1" data-name="Layer 1" xmlns="http://www.w3.org/2000/svg" xmlns:xlink="http://www.w3.org/1999/xlink" viewBox="0 0 249.61 152.33">
  <defs>
    <style>
      .cls-1 {
        stroke: #68358e;
        stroke-miterlimit: 10;
        stroke-width: .07px;
      }

      .cls-1, .cls-2 {
        fill: none;
      }

      .cls-3 {
        fill: #68358e;
      }

      .cls-4 {
        fill: #193f6a;
      }

      .cls-5 {
        clip-path: url(#clippath-1);
      }

      .cls-6 {
        clip-path: url(#clippath);
      }
    </style>
    <clipPath id="clippath">
      <rect class="cls-2" width="248.47" height="151.89"/>
    </clipPath>
    <clipPath id="clippath-1">
      <rect class="cls-2" width="248.47" height="151.89"/>
    </clipPath>
  </defs>
  <g class="cls-6">
    <path class="cls-4" d="m179.83,38.08c-5.37,0-10.18-.12-14.98.06-2.02.08-2.52-1.17-3.32-2.48-5.26-8.54-12.12-15.27-22.05-17.99-13.61-3.73-25,.51-34.26,10.64-9.32,10.19-12.91,22.59-12.79,36.19.1,10.8,2.92,20.84,9.11,29.75,15.46,22.27,43.19,22.07,58.49-.36.07-.1.11-.21.19-.3,1.86-2.35,2.31-6.65,4.96-7.21,4.61-.96,9.56-.33,14.37-.25,1.85.03,1.18,1.41.84,2.3-4.27,11.26-10.49,21.23-20.14,28.63-10.01,7.68-21.37,11.6-34.08,10.35-14.8-1.46-26.38-8.8-35.58-20.25-.8-1-.55-1.8-.22-2.86,4.48-14.37,1.89-27.45-7.34-39.28-1.46-1.87-3.26-3.39-5.13-4.77-1.88-1.39-2.01-2.64-.36-4.28,7.53-7.49,9.7-16.86,9.24-27.06-.08-1.89.29-3.36,1.37-4.87C99.94,7.54,115.52-1.46,136.17.75c14.24,1.53,25.37,9.03,34.1,20.21,3.98,5.09,7.08,10.68,9.57,17.12h0Z"/>
    <path class="cls-4" d="m20.62,15.37c-2.48-.04-3.24,1.21-3.26,3.56-.07,7.77-.14,15.54-.22,23.31-.02,2.25-.04,4.49-.06,6.74-.04,4.08,3.15,3.71,6.31,3.66,8.61-.14,17.85.67,26.28-1.22,9.14-2.05,14.88-9.13,14.56-17.98-.35-9.7-6.16-16.62-15.63-17.74-5.03,0-10.06-.09-15.1-.18-4.29-.07-8.59-.14-12.88-.14h0Zm-3.36,93.19c-.05,2.21.63,2.77,2.77,2.72,6.33-.14,12.67-.11,19-.03,4.93.06,9.88,0,14.61-1.47,6.97-2.17,13.13-5.75,14.93-13.4,1.93-8.17,1.58-16.18-5.37-22.35-3.68-3.27-8.1-5.06-12.95-5.74-10.27-1.45-20.61-.32-30.91-.73-1.85-.07-2.07.76-2.06,2.29.06,6.45.03,12.9.03,19.35,0,6.45.1,12.9-.05,19.35h0Zm44.25-48.91c3.8.9,7.27,1.55,10.38,3.23,20.59,11.17,21.62,42.67,1.9,55.25-8.77,5.6-18.35,8.1-28.6,8.19-14.07.13-28.15,0-42.22.09-2.23.01-2.99-.53-2.98-2.9C.06,83.29.06,43.07-.02,2.84-.02.39.85-.03,3.03-.01c13.49.08,26.97-.04,40.46.07,9.36.08,18.43,1.6,26.52,6.71,15.57,9.8,19.67,38.93-3.48,50.45-1.55.77-3.11,1.51-5.02,2.43h0Z"/>
  </g>
  <path class="cls-4" d="m4.42,147.16c-1.4-.29-3.46-.76-3.46-2.76,0-.96.52-1.57.89-1.88.87-.74,1.92-.82,2.6-.82s1.73.07,2.61.71c.96.7,1.15,1.69,1.25,2.28l-1.3.08c-.01-.3-.06-1.07-.78-1.61-.49-.36-1.11-.47-1.73-.47-1.17,0-2.2.48-2.2,1.52s1.07,1.32,1.91,1.51l1.07.27c.74.18,1.14.26,1.52.43,1.46.6,1.68,1.77,1.68,2.42,0,.91-.37,1.76-1.24,2.35-.93.63-2.05.69-2.64.69-.88,0-3.89-.14-4.11-3.34l1.39-.18c.01.37.06,1.22.78,1.87.55.48,1.28.65,1.99.65,1.37,0,2.42-.67,2.42-1.94,0-1.13-.89-1.43-1.84-1.62l-.81-.17h0Z"/>
  <polygon class="cls-4" points="14.58 143.07 14.58 151.64 13.28 151.64 13.28 143.07 10.37 143.07 10.37 141.93 17.48 141.93 17.48 143.07 14.58 143.07 14.58 143.07"/>
  <path class="cls-4" d="m21.37,146.45h2.57c.41,0,.8,0,1.18-.1.89-.22,1.21-.87,1.21-1.57,0-.25-.03-.91-.58-1.36-.51-.43-1.14-.41-1.88-.41h-2.5v3.43h0Zm0,1.07v4.12h-1.26v-9.69h3.6c1.35.01,2.14.01,2.9.59.71.54,1.02,1.35,1.02,2.24,0,2.27-1.83,2.58-2.29,2.66l2.72,4.2h-1.54l-2.64-4.12h-2.5Z"/>
  <path class="cls-4" d="m35.45,147.59l-1.41-4.04-1.48,4.04h2.9Zm.38,1.09h-3.69l-1.08,2.96h-1.37l3.69-9.69h1.35l3.53,9.69h-1.36l-1.06-2.96h0Z"/>
  <polygon class="cls-4" points="43.01 143.07 43.01 151.64 41.71 151.64 41.71 143.07 38.79 143.07 38.79 141.93 45.91 141.93 45.91 143.07 43.01 143.07 43.01 143.07"/>
  <polygon class="cls-4" points="49.78 147.22 49.78 150.51 55.38 150.51 55.38 151.64 48.53 151.64 48.53 141.95 55.22 141.95 55.22 143.09 49.78 143.09 49.78 146.08 54.5 146.08 54.5 147.22 49.78 147.22 49.78 147.22"/>
  <path class="cls-4" d="m67.58,146.52v5.12h-1.11v-1.36c-.81,1.18-2.22,1.61-3.54,1.61-2.99,0-4.83-2.1-4.83-4.97,0-2.47,1.48-5.22,5.01-5.22,1.24,0,2.46.4,3.38,1.24.65.62.95,1.25,1.1,1.57l-1.33.36c-.11-.29-.27-.73-.67-1.14-.38-.41-1.15-.95-2.43-.95-2.72,0-3.64,2.25-3.64,4.01s.95,3.98,3.58,3.98c1.19,0,3.42-.59,3.38-3.16h-3.39v-1.09h4.5Z"/>
  <polygon class="cls-4" points="72.71 141.95 72.71 151.64 71.41 151.64 71.41 141.95 72.71 141.95 72.71 141.95"/>
  <polygon class="cls-4" points="77.89 147.22 77.89 150.51 83.49 150.51 83.49 151.64 76.64 151.64 76.64 141.95 83.33 141.95 83.33 143.09 77.89 143.09 77.89 146.08 82.61 146.08 82.61 147.22 77.89 147.22 77.89 147.22"/>
  <path class="cls-4" d="m89.94,147.16c-1.4-.29-3.46-.76-3.46-2.76,0-.96.52-1.57.89-1.88.87-.74,1.92-.82,2.6-.82s1.73.07,2.61.71c.96.7,1.15,1.69,1.25,2.28l-1.3.08c-.01-.3-.05-1.07-.78-1.61-.49-.36-1.11-.47-1.73-.47-1.17,0-2.2.48-2.2,1.52s1.07,1.32,1.91,1.51l1.07.27c.74.18,1.14.26,1.52.43,1.46.6,1.68,1.77,1.68,2.42,0,.91-.37,1.76-1.24,2.35-.93.63-2.05.69-2.64.69-.88,0-3.89-.14-4.11-3.34l1.39-.18c.01.37.06,1.22.78,1.87.55.48,1.28.65,1.99.65,1.37,0,2.42-.67,2.42-1.94,0-1.13-.89-1.43-1.84-1.62l-.81-.17h0Z"/>
  <path class="cls-4" d="m103.39,147.12v3.38h2.87c.69-.01.92-.01,1.19-.08.82-.19,1.13-.8,1.13-1.55,0-1.13-.82-1.5-.93-1.55-.38-.16-.69-.18-1.88-.19h-2.38Zm0-4.04v2.94h2.02c1.47,0,2.16,0,2.6-.66.18-.26.25-.58.25-.86,0-1.39-1.33-1.41-1.85-1.41h-3.01Zm-1.22-1.14h4c.56,0,.91,0,1.3.07.98.19,2.14.91,2.14,2.42,0,1.18-.76,1.88-1.48,2.1.37.11,1.79.54,1.79,2.43,0,.47-.07,1.5-1.1,2.17-.76.49-1.43.49-2.86.51h-3.79v-9.69h0Z"/>
  <polygon class="cls-4" points="114.81 147.22 114.81 150.51 120.42 150.51 120.42 151.64 113.56 151.64 113.56 141.95 120.25 141.95 120.25 143.09 114.81 143.09 114.81 146.08 119.54 146.08 119.54 147.22 114.81 147.22 114.81 147.22"/>
  <polygon class="cls-4" points="127.05 147.2 127.05 151.64 125.74 151.64 125.74 147.2 122.32 141.95 123.86 141.95 126.4 146.05 129 141.95 130.54 141.95 127.05 147.2 127.05 147.2"/>
  <path class="cls-4" d="m137.12,142.74c-2.44,0-3.49,1.88-3.49,4.06,0,2.03,1,4.06,3.5,4.06s3.47-2.17,3.46-4.16c-.01-2.35-1.24-3.97-3.47-3.97h0Zm-.04,9.15c-2.95,0-4.85-2.07-4.85-5.09,0-3.6,2.49-5.09,4.89-5.09,2.72,0,4.87,1.84,4.87,5,0,2.91-1.7,5.19-4.92,5.19h0Z"/>
  <polygon class="cls-4" points="152.98 141.95 152.98 151.64 151.81 151.64 146.49 143.76 146.6 151.64 145.39 151.64 145.39 141.95 146.6 141.95 151.86 149.72 151.81 141.95 152.98 141.95 152.98 141.95"/>
  <path class="cls-4" d="m158.37,143.09v7.44h1.72c.85-.01,1.5-.03,2.14-.4.65-.36,1.47-1.24,1.47-3.32,0-1.59-.47-3.08-2.02-3.56-.54-.16-1.1-.16-1.79-.16h-1.52Zm-1.32-1.14h3.03c1.37,0,2.59,0,3.72,1.2,1.17,1.25,1.21,2.96,1.21,3.65s-.03,2.57-1.36,3.82c-1.13,1.03-2.44,1.03-3.27,1.03h-3.34v-9.69h0Z"/>
  <path class="cls-4" d="m182.33,148.12c-.41,1.84-1.96,3.76-4.78,3.76-3.2,0-4.74-2.4-4.74-5.09s1.58-5.09,4.92-5.09,4.17,2.32,4.41,2.97l-1.31.27c-.12-.36-.22-.67-.58-1.08-.47-.58-1.32-1.13-2.54-1.13-1.03,0-2.03.41-2.66,1.22-.62.77-.81,1.79-.81,2.77,0,2.4,1.22,4.09,3.46,4.09,1.44,0,2.91-.81,3.21-2.86l1.41.16h0Z"/>
  <path class="cls-4" d="m186.43,146.45h2.57c.41,0,.8,0,1.18-.1.89-.22,1.21-.87,1.21-1.57,0-.25-.03-.91-.58-1.36-.51-.43-1.14-.41-1.88-.41h-2.5v3.43h0Zm0,1.07v4.12h-1.26v-9.69h3.6c1.35.01,2.14.01,2.9.59.71.54,1.02,1.35,1.02,2.24,0,2.27-1.83,2.58-2.29,2.66l2.72,4.2h-1.54l-2.64-4.12h-2.5Z"/>
  <polygon class="cls-4" points="197.51 147.22 197.51 150.51 203.11 150.51 203.11 151.64 196.26 151.64 196.26 141.95 202.94 141.95 202.94 143.09 197.51 143.09 197.51 146.08 202.23 146.08 202.23 147.22 197.51 147.22 197.51 147.22"/>
  <path class="cls-4" d="m210.74,147.59l-1.41-4.04-1.48,4.04h2.9Zm.38,1.09h-3.69l-1.08,2.96h-1.37l3.69-9.69h1.34l3.53,9.69h-1.36l-1.06-2.96h0Z"/>
  <polygon class="cls-4" points="218.3 143.07 218.3 151.64 216.99 151.64 216.99 143.07 214.08 143.07 214.08 141.93 221.2 141.93 221.2 143.07 218.3 143.07 218.3 143.07"/>
  <polygon class="cls-4" points="224.97 141.95 224.97 151.64 223.67 151.64 223.67 141.95 224.97 141.95 224.97 141.95"/>
  <polygon class="cls-4" points="234.01 141.95 235.38 141.95 231.96 151.64 230.67 151.64 227.4 141.95 228.78 141.95 231.34 150.05 234.01 141.95 234.01 141.95"/>
  <polygon class="cls-4" points="239.22 147.22 239.22 150.51 244.83 150.51 244.83 151.64 237.98 151.64 237.98 141.95 244.66 141.95 244.66 143.09 239.22 143.09 239.22 146.08 243.95 146.08 243.95 147.22 239.22 147.22 239.22 147.22"/>
  <path class="cls-3" d="m124.24,63.91c-.66,2.93-3.12,5.98-7.6,5.98-5.09,0-7.53-3.82-7.53-8.1s2.51-8.1,7.82-8.1,6.64,3.69,7.01,4.72l-2.07.44c-.2-.57-.35-1.07-.92-1.73-.74-.92-2.1-1.79-4.04-1.79-1.64,0-3.23.65-4.24,1.94-.98,1.22-1.29,2.84-1.29,4.41,0,3.82,1.94,6.51,5.5,6.51,2.29,0,4.63-1.29,5.11-4.54l2.25.26h0Z"/>
  <path class="cls-1" d="m124.24,63.91c-.66,2.93-3.12,5.98-7.6,5.98-5.09,0-7.53-3.82-7.53-8.1s2.51-8.1,7.82-8.1,6.64,3.69,7.01,4.72l-2.07.44c-.2-.57-.35-1.07-.92-1.73-.74-.92-2.1-1.79-4.04-1.79-1.64,0-3.23.65-4.24,1.94-.98,1.22-1.29,2.84-1.29,4.41,0,3.82,1.94,6.51,5.5,6.51,2.29,0,4.63-1.29,5.11-4.54l2.25.26h0Z"/>
  <path class="cls-3" d="m133.76,55.35c-3.89,0-5.55,2.99-5.55,6.46,0,3.23,1.59,6.46,5.57,6.46s5.52-3.45,5.5-6.62c-.02-3.73-1.96-6.31-5.52-6.31h0Zm-.07,14.54c-4.69,0-7.71-3.3-7.71-8.1,0-5.72,3.95-8.1,7.77-8.1,4.32,0,7.75,2.93,7.75,7.95,0,4.63-2.71,8.25-7.82,8.25h0Z"/>
  <path class="cls-1" d="m133.76,55.35c-3.89,0-5.55,2.99-5.55,6.46,0,3.23,1.59,6.46,5.57,6.46s5.52-3.45,5.5-6.62c-.02-3.73-1.96-6.31-5.52-6.31h0Zm-.07,14.54c-4.69,0-7.71-3.3-7.71-8.1,0-5.72,3.95-8.1,7.77-8.1,4.32,0,7.75,2.93,7.75,7.95,0,4.63-2.71,8.25-7.82,8.25h0Z"/>
  <polygon class="cls-3" points="156.81 54.09 156.81 69.5 154.96 69.5 146.51 56.97 146.68 69.5 144.76 69.5 144.76 54.09 146.68 54.09 155.05 66.44 154.96 54.09 156.81 54.09 156.81 54.09"/>
  <polygon class="cls-1" points="156.81 54.09 156.81 69.5 154.96 69.5 146.51 56.97 146.68 69.5 144.76 69.5 144.76 54.09 146.68 54.09 155.05 66.44 154.96 54.09 156.81 54.09 156.81 54.09"/>
  <path class="cls-3" d="m166.03,62.38c-2.23-.46-5.5-1.2-5.5-4.39,0-1.53.83-2.49,1.42-2.99,1.37-1.18,3.06-1.31,4.13-1.31s2.75.11,4.15,1.14c1.53,1.11,1.83,2.69,1.99,3.62l-2.07.13c-.02-.48-.09-1.7-1.25-2.55-.79-.57-1.77-.74-2.75-.74-1.85,0-3.49.76-3.49,2.42s1.7,2.1,3.03,2.4l1.7.44c1.18.28,1.81.41,2.42.68,2.32.96,2.66,2.82,2.66,3.84,0,1.44-.59,2.79-1.97,3.73-1.48,1-3.25,1.09-4.19,1.09-1.4,0-6.18-.22-6.53-5.31l2.2-.28c.02.59.09,1.94,1.25,2.97.87.76,2.03,1.03,3.17,1.03,2.18,0,3.84-1.07,3.84-3.08,0-1.79-1.42-2.27-2.93-2.58l-1.29-.26h0Z"/>
  <path class="cls-1" d="m166.03,62.38c-2.23-.46-5.5-1.2-5.5-4.39,0-1.53.83-2.49,1.42-2.99,1.37-1.18,3.06-1.31,4.13-1.31s2.75.11,4.15,1.14c1.53,1.11,1.83,2.69,1.99,3.62l-2.07.13c-.02-.48-.09-1.7-1.25-2.55-.79-.57-1.77-.74-2.75-.74-1.85,0-3.49.76-3.49,2.42s1.7,2.1,3.03,2.4l1.7.44c1.18.28,1.81.41,2.42.68,2.32.96,2.66,2.82,2.66,3.84,0,1.44-.59,2.79-1.97,3.73-1.48,1-3.25,1.09-4.19,1.09-1.4,0-6.18-.22-6.53-5.31l2.2-.28c.02.59.09,1.94,1.25,2.97.87.76,2.03,1.03,3.17,1.03,2.18,0,3.84-1.07,3.84-3.08,0-1.79-1.42-2.27-2.93-2.58l-1.29-.26h0Z"/>
  <path class="cls-3" d="m187.33,54.06v9.85c-.02.63-.02,1.31-.2,2.01-.44,1.86-2.16,3.95-5.76,3.95-1.14,0-3.28-.17-4.74-2.05-1.03-1.31-1-2.47-1-4.19v-9.56h2.07v9.28c-.02,1.42-.02,2.62.79,3.6.92,1.14,2.27,1.2,2.88,1.2,1.81,0,3.23-.87,3.69-2.55.18-.68.18-1.31.2-2.29v-9.24h2.07Z"/>
  <path class="cls-1" d="m187.33,54.06v9.85c-.02.63-.02,1.31-.2,2.01-.44,1.86-2.16,3.95-5.76,3.95-1.14,0-3.28-.17-4.74-2.05-1.03-1.31-1-2.47-1-4.19v-9.56h2.07v9.28c-.02,1.42-.02,2.62.79,3.6.92,1.14,2.27,1.2,2.88,1.2,1.81,0,3.23-.87,3.69-2.55.18-.68.18-1.31.2-2.29v-9.24h2.07Z"/>
  <polygon class="cls-3" points="193.46 67.67 200.93 67.67 200.93 69.5 191.41 69.5 191.41 54.06 193.46 54.06 193.46 67.67 193.46 67.67"/>
  <polygon class="cls-1" points="193.46 67.67 200.93 67.67 200.93 69.5 191.41 69.5 191.41 54.06 193.46 54.06 193.46 67.67 193.46 67.67"/>
  <polygon class="cls-3" points="205.52 55.88 205.52 69.5 203.45 69.5 203.45 55.88 198.82 55.88 198.82 54.06 210.13 54.06 210.13 55.88 205.52 55.88 205.52 55.88"/>
  <polygon class="cls-1" points="205.52 55.88 205.52 69.5 203.45 69.5 203.45 55.88 198.82 55.88 198.82 54.06 210.13 54.06 210.13 55.88 205.52 55.88 205.52 55.88"/>
  <polygon class="cls-3" points="213.97 54.09 213.97 69.5 211.89 69.5 211.89 54.09 213.97 54.09 213.97 54.09"/>
  <polygon class="cls-1" points="213.97 54.09 213.97 69.5 211.89 69.5 211.89 54.09 213.97 54.09 213.97 54.09"/>
  <polygon class="cls-3" points="230.1 54.09 230.1 69.5 228.24 69.5 219.8 56.97 219.97 69.5 218.05 69.5 218.05 54.09 219.97 54.09 228.33 66.44 228.24 54.09 230.1 54.09 230.1 54.09"/>
  <polygon class="cls-1" points="230.1 54.09 230.1 69.5 228.24 69.5 219.8 56.97 219.97 69.5 218.05 69.5 218.05 54.09 219.97 54.09 228.33 66.44 228.24 54.09 230.1 54.09 230.1 54.09"/>
  <path class="cls-3" d="m248.44,61.36v8.14h-1.77v-2.16c-1.29,1.88-3.54,2.55-5.63,2.55-4.76,0-7.69-3.34-7.69-7.9,0-3.93,2.36-8.3,7.97-8.3,1.96,0,3.91.63,5.37,1.96,1.03.98,1.51,1.99,1.75,2.49l-2.12.57c-.18-.46-.44-1.16-1.07-1.81-.61-.66-1.83-1.51-3.86-1.51-4.32,0-5.79,3.58-5.79,6.38s1.51,6.33,5.7,6.33c1.9,0,5.44-.94,5.37-5.02h-5.39v-1.72h7.16Z"/>
  <g class="cls-5">
    <path class="cls-1" d="m248.44,61.36v8.14h-1.77v-2.16c-1.29,1.88-3.54,2.55-5.63,2.55-4.76,0-7.69-3.34-7.69-7.9,0-3.93,2.36-8.3,7.97-8.3,1.96,0,3.91.63,5.37,1.96,1.03.98,1.51,1.99,1.75,2.49l-2.12.57c-.18-.46-.44-1.16-1.07-1.81-.61-.66-1.83-1.51-3.86-1.51-4.32,0-5.79,3.58-5.79,6.38s1.51,6.33,5.7,6.33c1.9,0,5.44-.94,5.37-5.02h-5.39v-1.72h7.16Z"/>
  </g>
</svg>