<?xml version="1.0" encoding="UTF-8"?>
<svg id="Layer_1" data-name="Layer 1" xmlns="http://www.w3.org/2000/svg" viewBox="0 0 324.71 57.77">
  <defs>
    <style>
      .cls-1 {
        fill: #833278;
      }

      .cls-2 {
        fill: #193f6a;
      }

      .cls-3 {
        fill: #b5bc35;
      }

      .cls-4 {
        fill: #61c9d9;
      }
    </style>
  </defs>
  <g>
    <path class="cls-2" d="m57.37,28.68h0C57.37,12.84,44.53,0,28.69,0v28.68h28.68Z"/>
    <path class="cls-3" d="m28.69,0h0C12.84,0,0,12.84,0,28.68h28.69V0h0Z"/>
    <path class="cls-4" d="m0,28.68c0,15.84,12.84,28.68,28.68,28.68h0v-28.68H0Z"/>
    <path class="cls-1" d="m57.37,28.68h-28.68v28.68c15.84,0,28.68-12.84,28.68-28.68h0Z"/>
  </g>
  <g>
    <path class="cls-4" d="m95.31,0c-7.98,0-15.2,3.23-20.42,8.46l20.42,20.42V0h0Z"/>
    <path class="cls-1" d="m95.31,28.88l20.42-20.42c-5.23-5.23-12.45-8.46-20.42-8.46h0v28.88h0Z"/>
    <path class="cls-2" d="m124.19,28.88c0-7.98-3.23-15.2-8.46-20.42l-20.42,20.42h28.88Z"/>
    <path class="cls-4" d="m74.88,8.46c-5.23,5.23-8.46,12.45-8.46,20.42h28.88l-20.42-20.42h0Z"/>
    <path class="cls-4" d="m95.31,28.88h-28.88c0,7.98,3.23,15.2,8.46,20.42l20.42-20.42h0Z"/>
    <path class="cls-1" d="m95.31,28.88v28.88h0c7.98,0,15.2-3.23,20.42-8.46l-20.42-20.42h0Z"/>
    <path class="cls-2" d="m124.19,28.88h-28.88l20.42,20.42c5.23-5.23,8.46-12.45,8.46-20.42h0Z"/>
    <path class="cls-3" d="m74.88,49.31c5.23,5.23,12.45,8.46,20.42,8.46v-28.88l-20.42,20.42h0Z"/>
  </g>
  <g>
    <path class="cls-4" d="m161.44,28.8V0c-10.66,0-19.96,5.79-24.94,14.4l24.94,14.4h0Z"/>
    <path class="cls-1" d="m186.37,14.4c-4.98-8.61-14.28-14.4-24.94-14.4h0v28.8l24.94-14.4h0Z"/>
    <path class="cls-2" d="m161.44,57.6h0c10.66,0,19.96-5.79,24.94-14.4l-24.94-14.4v28.8h0Z"/>
    <path class="cls-3" d="m186.37,14.4l-24.94,14.4h0s24.94,14.4,24.94,14.4c2.45-4.24,3.86-9.15,3.86-14.4s-1.41-10.16-3.86-14.4h0Z"/>
    <path class="cls-4" d="m136.5,14.4c-2.45,4.24-3.86,9.15-3.86,14.4s1.41,10.16,3.86,14.4l24.94-14.4-24.94-14.4h0Z"/>
    <path class="cls-2" d="m161.44,28.8l-24.94,14.4c4.98,8.61,14.28,14.4,24.94,14.4v-28.8h0Z"/>
  </g>
  <g>
    <path class="cls-3" d="m252.72,14.4c2.45,4.24,3.86,9.15,3.86,14.4s-1.41,10.16-3.86,14.4l-24.94-14.4h0V0h0c10.66,0,19.96,5.79,24.94,14.4h0Z"/>
    <path class="cls-4" d="m227.78,28.8l-24.94,14.4c-2.45-4.24-3.86-9.15-3.86-14.4s1.41-10.16,3.86-14.4c4.98-8.61,14.28-14.4,24.94-14.4v28.8h0Z"/>
    <path class="cls-2" d="m227.78,57.6c-10.66,0-19.96-5.79-24.94-14.4l24.94-14.4h0l24.94,14.4c-4.98,8.61-14.28,14.4-24.94,14.4h0Z"/>
  </g>
  <g>
    <path class="cls-4" d="m267.53,28.59c0,15.79,12.8,28.59,28.59,28.59V0c-15.79,0-28.59,12.8-28.59,28.59h0Z"/>
    <path class="cls-2" d="m296.12,0h0v57.18h0c15.79,0,28.59-12.8,28.59-28.59S311.91,0,296.12,0h0Z"/>
  </g>
</svg>